<?xml version="1.0" encoding="UTF-8" standalone="no"?>
<!-- Created with Inkscape (http://www.inkscape.org/) -->

<svg
   xmlns:dc="http://purl.org/dc/elements/1.1/"
   xmlns:cc="http://creativecommons.org/ns#"
   xmlns:rdf="http://www.w3.org/1999/02/22-rdf-syntax-ns#"
   xmlns:svg="http://www.w3.org/2000/svg"
   xmlns="http://www.w3.org/2000/svg"
   xmlns:xlink="http://www.w3.org/1999/xlink"
   xmlns:sodipodi="http://sodipodi.sourceforge.net/DTD/sodipodi-0.dtd"
   xmlns:inkscape="http://www.inkscape.org/namespaces/inkscape"
   width="422.85715"
   height="422.85715"
   id="svg2"
   version="1.1"
   inkscape:version="0.48.2 r9819"
   sodipodi:docname="Neues Dokument 1">
  <defs
     id="defs4">
    <linearGradient
       id="linearGradient3853">
      <stop
         id="stop3855"
         offset="0"
         style="stop-color:#ffffff;stop-opacity:1;" />
      <stop
         id="stop3857"
         offset="1"
         style="stop-color:#5c636b;stop-opacity:0;" />
    </linearGradient>
    <linearGradient
       id="linearGradient3829">
      <stop
         id="stop3831"
         offset="0"
         style="stop-color:#5c636b;stop-opacity:0;" />
      <stop
         id="stop3833"
         offset="1"
         style="stop-color:#000000;stop-opacity:0.86033517;" />
    </linearGradient>
    <linearGradient
       inkscape:collect="always"
       id="linearGradient2987">
      <stop
         style="stop-color:#5c636b;stop-opacity:1;"
         offset="0"
         id="stop2989" />
      <stop
         style="stop-color:#5c636b;stop-opacity:0;"
         offset="1"
         id="stop2991" />
    </linearGradient>
    <linearGradient
       inkscape:collect="always"
       xlink:href="#linearGradient2987"
       id="linearGradient2993"
       x1="-728.57141"
       y1="172.36218"
       x2="-305.71426"
       y2="589.50507"
       gradientUnits="userSpaceOnUse" />
    <linearGradient
       inkscape:collect="always"
       xlink:href="#linearGradient2987-7"
       id="linearGradient2993-1"
       x1="-728.57141"
       y1="172.36218"
       x2="-305.71426"
       y2="589.50507"
       gradientUnits="userSpaceOnUse" />
    <linearGradient
       inkscape:collect="always"
       id="linearGradient2987-7">
      <stop
         style="stop-color:#5c636b;stop-opacity:1;"
         offset="0"
         id="stop2989-4" />
      <stop
         style="stop-color:#5c636b;stop-opacity:0;"
         offset="1"
         id="stop2991-0" />
    </linearGradient>
    <linearGradient
       inkscape:collect="always"
       xlink:href="#linearGradient2987-8"
       id="linearGradient2993-4"
       x1="-728.57141"
       y1="172.36218"
       x2="-305.71426"
       y2="589.50507"
       gradientUnits="userSpaceOnUse" />
    <linearGradient
       inkscape:collect="always"
       id="linearGradient2987-8">
      <stop
         style="stop-color:#5c636b;stop-opacity:1;"
         offset="0"
         id="stop2989-8" />
      <stop
         style="stop-color:#5c636b;stop-opacity:0;"
         offset="1"
         id="stop2991-2" />
    </linearGradient>
    <radialGradient
       inkscape:collect="always"
       xlink:href="#linearGradient3829"
       id="radialGradient3815"
       cx="-514.28571"
       cy="380.93362"
       fx="-514.28571"
       fy="380.93362"
       r="211.42857"
       gradientUnits="userSpaceOnUse" />
    <linearGradient
       inkscape:collect="always"
       xlink:href="#linearGradient2987-4"
       id="linearGradient2993-0"
       x1="-728.57141"
       y1="172.36218"
       x2="-305.71426"
       y2="589.50507"
       gradientUnits="userSpaceOnUse" />
    <linearGradient
       inkscape:collect="always"
       id="linearGradient2987-4">
      <stop
         style="stop-color:#5c636b;stop-opacity:1;"
         offset="0"
         id="stop2989-9" />
      <stop
         style="stop-color:#5c636b;stop-opacity:0;"
         offset="1"
         id="stop2991-4" />
    </linearGradient>
    <linearGradient
       y2="598.07648"
       x2="-508.57141"
       y1="169.50504"
       x1="-514.28571"
       gradientUnits="userSpaceOnUse"
       id="linearGradient3011"
       xlink:href="#linearGradient3853"
       inkscape:collect="always" />
  </defs>
  <sodipodi:namedview
     id="base"
     pagecolor="#ffffff"
     bordercolor="#666666"
     borderopacity="1.0"
     inkscape:pageopacity="0.0"
     inkscape:pageshadow="2"
     inkscape:zoom="0.35"
     inkscape:cx="528.57142"
     inkscape:cy="60.000017"
     inkscape:document-units="px"
     inkscape:current-layer="layer4"
     showgrid="false"
     fit-margin-top="0"
     fit-margin-left="0"
     fit-margin-right="0"
     fit-margin-bottom="0"
     inkscape:window-width="1352"
     inkscape:window-height="819"
     inkscape:window-x="1355"
     inkscape:window-y="75"
     inkscape:window-maximized="0" />
  <metadata
     id="metadata7">
    <rdf:RDF>
      <cc:Work
         rdf:about="">
        <dc:format>image/svg+xml</dc:format>
        <dc:type
           rdf:resource="http://purl.org/dc/dcmitype/StillImage" />
        <dc:title></dc:title>
      </cc:Work>
    </rdf:RDF>
  </metadata>
  <g
     inkscape:label="Ebene 1"
     inkscape:groupmode="layer"
     id="layer1"
     transform="translate(725.71428,-169.50505)">
    <path
       sodipodi:type="arc"
       style="fill:url(#linearGradient2993);fill-opacity:1;fill-rule:nonzero;stroke:none"
       id="path2985"
       sodipodi:cx="-514.28571"
       sodipodi:cy="380.93362"
       sodipodi:rx="211.42857"
       sodipodi:ry="211.42857"
       d="m -302.85713,380.93362 c 0,116.76878 -94.6598,211.42858 -211.42858,211.42858 -116.76877,0 -211.42857,-94.6598 -211.42857,-211.42858 0,-116.76877 94.6598,-211.42857 211.42857,-211.42857 116.76878,0 211.42858,94.6598 211.42858,211.42857 z"
       inkscape:export-filename="C:\Users\hannes\Desktop\button_bt.png"
       inkscape:export-xdpi="90"
       inkscape:export-ydpi="90" />
  </g>
  <g
     inkscape:groupmode="layer"
     id="layer2"
     inkscape:label="schatten"
     transform="translate(725.71428,-169.50505)">
    <path
       transform="translate(-8.2519534e-7,1.9580079e-6)"
       sodipodi:type="arc"
       style="fill:url(#radialGradient3815);fill-opacity:1;fill-rule:nonzero;stroke:none"
       id="path2985-5"
       sodipodi:cx="-514.28571"
       sodipodi:cy="380.93362"
       sodipodi:rx="211.42857"
       sodipodi:ry="211.42857"
       d="m -302.85713,380.93362 c 0,116.76878 -94.6598,211.42858 -211.42858,211.42858 -116.76877,0 -211.42857,-94.6598 -211.42857,-211.42858 0,-116.76877 94.6598,-211.42857 211.42857,-211.42857 116.76878,0 211.42858,94.6598 211.42858,211.42857 z"
       inkscape:export-filename="C:\Users\hannes\Desktop\button_bt.png"
       inkscape:export-xdpi="90"
       inkscape:export-ydpi="90" />
  </g>
  <g
     inkscape:groupmode="layer"
     id="layer4"
     inkscape:label="Logo"
     transform="translate(725.71428,-169.50505)">
    <path
       style="fill:#000000"
       d="m -516.17512,466.33334 c -17.43019,-1.095 -34.185,-7.4805 -48.10278,-18.3328 -4.35927,-3.3991 -8.99286,-7.8358 -12.47361,-11.9436 l -1.76412,-2.0819 -11.38961,-0.066 c -9.83502,-0.057 -11.61756,-0.1074 -13.05963,-0.3701 -8.7188,-1.5881 -15.90713,-5.4288 -21.74618,-11.6188 -6.1713,-6.5422 -9.72231,-14.4265 -10.47785,-23.2641 -0.13341,-1.5605 -0.17474,-8.1413 -0.12989,-20.6857 0.0723,-20.2337 0.0389,-19.5633 1.20085,-24.0698 1.77109,-6.869 5.10622,-12.6208 10.31285,-17.7857 6.19621,-6.1466 13.71305,-9.7962 22.41552,-10.8833 1.54631,-0.1931 4.45335,-0.252 12.43967,-0.252 l 10.42181,0 1.1508,-1.391 c 9.99799,-12.0848 24.29778,-21.7952 39.40175,-26.7562 9.1229,-2.9965 17.41426,-4.3104 27.25794,-4.3194 5.42975,0 7.46377,0.127 12.32344,0.7994 14.42506,1.9958 28.77341,7.9818 40.36011,16.8378 4.52342,3.4574 10.53446,9.179 13.86302,13.1956 l 1.32036,1.5933 11.53122,0.081 c 10.81267,0.076 11.65188,0.1044 13.46776,0.453 8.40588,1.6137 15.47336,5.409 21.13761,11.3512 6.28268,6.591 9.87993,14.5172 10.64384,23.4528 0.13341,1.5606 0.17473,8.1414 0.12989,20.6858 -0.0594,16.6048 -0.0962,18.5769 -0.37775,20.2423 -1.1397,6.7406 -3.567,12.35 -7.711,17.8199 -5.31336,7.0134 -13.71354,12.2931 -22.50223,14.1432 -3.32741,0.7004 -5.03412,0.7854 -15.77523,0.7854 l -10.41909,0 -2.02531,2.3326 c -2.37215,2.7322 -6.79731,7.1213 -9.53628,9.4586 -8.39712,7.1658 -18.48453,12.8397 -29.14275,16.392 -10.18019,3.393 -21.80838,4.883 -32.74513,4.196 z m 94.36232,-42.9462 c 3.51174,-0.3625 6.45748,-1.1835 9.41863,-2.6251 8.43416,-4.106 14.27198,-11.9786 15.6743,-21.1375 0.39162,-2.5578 0.37979,-37.7783 -0.0136,-40.4275 -0.69285,-4.6661 -2.75303,-9.328 -5.80664,-13.1396 -4.34151,-5.4192 -10.06739,-8.8482 -17.16012,-10.2766 -1.36516,-0.2749 -3.89783,-0.3072 -28.87205,-0.3678 -28.70137,-0.07 -32.21972,0 -35.4739,0.669 -6.54412,1.3521 -11.02021,4.6366 -14.13988,10.3757 -1.53297,2.8201 -3.03272,7.7678 -3.62876,11.9713 -0.75559,5.3287 -0.83136,7.0932 -0.97901,22.7984 -0.0792,8.4239 -0.2318,16.3065 -0.33911,17.5169 -0.6149,6.9355 -1.62414,11.2893 -3.52987,15.2277 -2.3781,4.9146 -6.46334,8.0841 -11.80097,9.1558 -0.82303,0.1652 -1.5297,0.332 -1.57038,0.3705 -0.1713,0.1623 96.6336,0.053 98.22134,-0.1112 z m -64.08188,-42.1597 0,-27.1996 23.59058,0 23.59059,0 0,6.2488 0,6.2488 -16.06448,0.045 -16.06449,0.045 0,6.4258 0,6.4258 14.6561,0.045 14.65608,0.045 0,6.0727 0,6.0727 -14.7001,0 -14.7001,0 0,8.3623 0,8.3624 -7.48209,0 -7.48209,0 0,-27.1996 z m 55.27943,7.13 0,-20.0696 6.95394,0 6.95393,0 0,20.0696 0,20.0696 -6.95393,0 -6.95394,0 0,-20.0696 z m 4.28642,-23.8406 c -2.40203,-0.5826 -4.26748,-2.031 -5.29591,-4.1119 -0.60214,-1.2184 -0.6627,-1.4715 -0.6599,-2.759 0.003,-1.2254 0.0797,-1.5801 0.56827,-2.6173 1.00885,-2.1416 2.97086,-3.65 5.53315,-4.2541 3.86011,-0.91 7.91094,0.8401 9.52274,4.1141 0.51414,1.0443 0.56928,1.3102 0.56928,2.7445 0,1.3771 -0.0671,1.7335 -0.50514,2.6817 -1.51401,3.2775 -5.84134,5.1459 -9.73249,4.202 z m -157.97729,28.0734 c 1.88813,-8.7089 3.47986,-15.779 3.53717,-15.7112 0.0573,0.068 1.4041,7.1934 2.99284,15.8348 l 2.88862,15.7117 7.16214,0 c 6.66753,0 7.16876,-0.021 7.2581,-0.3074 0.1608,-0.5161 13.13144,-54.1556 13.13144,-54.3043 0,-0.076 -3.43757,-0.1388 -7.63905,-0.1388 l -7.63905,0 -0.0934,0.3961 c -0.0514,0.2178 -1.14784,7.2736 -2.43662,15.6795 -1.2954,8.449 -2.39805,15.1406 -2.4658,14.9641 -0.0674,-0.1755 -1.48496,-7.2313 -3.15013,-15.6794 l -3.02759,-15.3603 -7.00075,0 -7.00074,0 -0.0949,0.3961 c -0.0522,0.2178 -1.49041,6.9715 -3.19608,15.0082 -1.70567,8.0366 -3.15843,14.7558 -3.22836,14.9314 -0.0699,0.1757 -0.97547,-6.6289 -2.01232,-15.1214 -1.03684,-8.4924 -1.92397,-15.4796 -1.9714,-15.527 -0.12929,-0.1293 -15.3809,0.2205 -15.51626,0.3559 -0.0875,0.087 12.31693,53.3301 12.6946,54.488 0.0557,0.1709 1.55686,0.2198 6.72316,0.2189 l 6.65137,0 3.43296,-15.8344 z m 57.92015,-4.2328 0,-20.0696 -6.95394,0 -6.95394,0 0,20.0696 0,20.0696 6.95394,0 6.95394,0 0,-20.0696 z m -5.12856,-23.8464 c 2.28803,-0.6089 4.3068,-2.1827 5.23993,-4.0849 0.45336,-0.9241 0.50474,-1.208 0.50477,-2.7893 3e-5,-1.5956 -0.048,-1.8554 -0.51308,-2.7736 -0.61377,-1.2119 -2.1519,-2.7314 -3.41052,-3.3691 -4.30149,-2.1798 -9.73197,-0.6105 -11.69648,3.38 -0.52312,1.0626 -0.57615,1.3176 -0.57363,2.759 0.002,1.3496 0.0736,1.7402 0.47461,2.6009 0.89731,1.926 2.74527,3.4606 5.05849,4.2009 1.20993,0.3872 3.60773,0.4243 4.91591,0.076 z"
       id="path2996"
       inkscape:connector-curvature="0"
       inkscape:export-filename="C:\Users\hannes\Desktop\button_bt.png"
       inkscape:export-xdpi="90"
       inkscape:export-ydpi="90" />
  </g>
  <g
     inkscape:groupmode="layer"
     id="layer3"
     inkscape:label="glanz"
     transform="translate(725.71428,-169.50505)">
    <path
       transform="matrix(0.74324325,0,0,0.4864865,-132.04633,98.471706)"
       sodipodi:type="arc"
       style="fill:url(#linearGradient3011);fill-opacity:1;fill-rule:nonzero;stroke:none"
       id="path2985-6"
       sodipodi:cx="-514.28571"
       sodipodi:cy="380.93362"
       sodipodi:rx="211.42857"
       sodipodi:ry="211.42857"
       d="m -302.85713,380.93362 c 0,116.76878 -94.6598,211.42858 -211.42858,211.42858 -116.76877,0 -211.42857,-94.6598 -211.42857,-211.42858 0,-116.76877 94.6598,-211.42857 211.42857,-211.42857 116.76878,0 211.42858,94.6598 211.42858,211.42857 z"
       inkscape:export-filename="C:\Users\hannes\Desktop\button_bt.png"
       inkscape:export-xdpi="90"
       inkscape:export-ydpi="90" />
  </g>
</svg>
