<?xml version="1.0" encoding="UTF-8" standalone="no"?>
<!-- Created with Inkscape (http://www.inkscape.org/) -->

<svg
   xmlns:dc="http://purl.org/dc/elements/1.1/"
   xmlns:cc="http://creativecommons.org/ns#"
   xmlns:rdf="http://www.w3.org/1999/02/22-rdf-syntax-ns#"
   xmlns:svg="http://www.w3.org/2000/svg"
   xmlns="http://www.w3.org/2000/svg"
   xmlns:xlink="http://www.w3.org/1999/xlink"
   xmlns:sodipodi="http://sodipodi.sourceforge.net/DTD/sodipodi-0.dtd"
   xmlns:inkscape="http://www.inkscape.org/namespaces/inkscape"
   width="422.85715"
   height="422.85715"
   id="svg2"
   version="1.1"
   inkscape:version="0.48.2 r9819"
   sodipodi:docname="button_wifi.svg">
  <defs
     id="defs4">
    <linearGradient
       id="linearGradient3853">
      <stop
         id="stop3855"
         offset="0"
         style="stop-color:#ffffff;stop-opacity:1;" />
      <stop
         id="stop3857"
         offset="1"
         style="stop-color:#5c636b;stop-opacity:0;" />
    </linearGradient>
    <linearGradient
       id="linearGradient3829">
      <stop
         id="stop3831"
         offset="0"
         style="stop-color:#5c636b;stop-opacity:0;" />
      <stop
         id="stop3833"
         offset="1"
         style="stop-color:#000000;stop-opacity:0.86033517;" />
    </linearGradient>
    <linearGradient
       inkscape:collect="always"
       id="linearGradient2987">
      <stop
         style="stop-color:#5c636b;stop-opacity:1;"
         offset="0"
         id="stop2989" />
      <stop
         style="stop-color:#5c636b;stop-opacity:0;"
         offset="1"
         id="stop2991" />
    </linearGradient>
    <linearGradient
       inkscape:collect="always"
       xlink:href="#linearGradient2987"
       id="linearGradient2993"
       x1="-728.57141"
       y1="172.36218"
       x2="-305.71426"
       y2="589.50507"
       gradientUnits="userSpaceOnUse" />
    <linearGradient
       inkscape:collect="always"
       xlink:href="#linearGradient2987-7"
       id="linearGradient2993-1"
       x1="-728.57141"
       y1="172.36218"
       x2="-305.71426"
       y2="589.50507"
       gradientUnits="userSpaceOnUse" />
    <linearGradient
       inkscape:collect="always"
       id="linearGradient2987-7">
      <stop
         style="stop-color:#5c636b;stop-opacity:1;"
         offset="0"
         id="stop2989-4" />
      <stop
         style="stop-color:#5c636b;stop-opacity:0;"
         offset="1"
         id="stop2991-0" />
    </linearGradient>
    <linearGradient
       inkscape:collect="always"
       xlink:href="#linearGradient2987-8"
       id="linearGradient2993-4"
       x1="-728.57141"
       y1="172.36218"
       x2="-305.71426"
       y2="589.50507"
       gradientUnits="userSpaceOnUse" />
    <linearGradient
       inkscape:collect="always"
       id="linearGradient2987-8">
      <stop
         style="stop-color:#5c636b;stop-opacity:1;"
         offset="0"
         id="stop2989-8" />
      <stop
         style="stop-color:#5c636b;stop-opacity:0;"
         offset="1"
         id="stop2991-2" />
    </linearGradient>
    <radialGradient
       inkscape:collect="always"
       xlink:href="#linearGradient3829"
       id="radialGradient3815"
       cx="-514.28571"
       cy="380.93362"
       fx="-514.28571"
       fy="380.93362"
       r="211.42857"
       gradientUnits="userSpaceOnUse" />
    <linearGradient
       inkscape:collect="always"
       xlink:href="#linearGradient2987-4"
       id="linearGradient2993-0"
       x1="-728.57141"
       y1="172.36218"
       x2="-305.71426"
       y2="589.50507"
       gradientUnits="userSpaceOnUse" />
    <linearGradient
       inkscape:collect="always"
       id="linearGradient2987-4">
      <stop
         style="stop-color:#5c636b;stop-opacity:1;"
         offset="0"
         id="stop2989-9" />
      <stop
         style="stop-color:#5c636b;stop-opacity:0;"
         offset="1"
         id="stop2991-4" />
    </linearGradient>
    <linearGradient
       y2="598.07648"
       x2="-508.57141"
       y1="169.50504"
       x1="-514.28571"
       gradientUnits="userSpaceOnUse"
       id="linearGradient3011"
       xlink:href="#linearGradient3853"
       inkscape:collect="always" />
  </defs>
  <sodipodi:namedview
     id="base"
     pagecolor="#ffffff"
     bordercolor="#666666"
     borderopacity="1.0"
     inkscape:pageopacity="0.0"
     inkscape:pageshadow="2"
     inkscape:zoom="0.35"
     inkscape:cx="-859.7143"
     inkscape:cy="325.30888"
     inkscape:document-units="px"
     inkscape:current-layer="layer4"
     showgrid="false"
     fit-margin-top="0"
     fit-margin-left="0"
     fit-margin-right="0"
     fit-margin-bottom="0"
     inkscape:window-width="1920"
     inkscape:window-height="1018"
     inkscape:window-x="1272"
     inkscape:window-y="-8"
     inkscape:window-maximized="1" />
  <metadata
     id="metadata7">
    <rdf:RDF>
      <cc:Work
         rdf:about="">
        <dc:format>image/svg+xml</dc:format>
        <dc:type
           rdf:resource="http://purl.org/dc/dcmitype/StillImage" />
        <dc:title></dc:title>
      </cc:Work>
    </rdf:RDF>
  </metadata>
  <g
     inkscape:label="Ebene 1"
     inkscape:groupmode="layer"
     id="layer1"
     transform="translate(725.71428,-169.50505)">
    <path
       sodipodi:type="arc"
       style="fill:url(#linearGradient2993);fill-opacity:1;fill-rule:nonzero;stroke:none"
       id="path2985"
       sodipodi:cx="-514.28571"
       sodipodi:cy="380.93362"
       sodipodi:rx="211.42857"
       sodipodi:ry="211.42857"
       d="m -302.85713,380.93362 c 0,116.76878 -94.6598,211.42858 -211.42858,211.42858 -116.76877,0 -211.42857,-94.6598 -211.42857,-211.42858 0,-116.76877 94.6598,-211.42857 211.42857,-211.42857 116.76878,0 211.42858,94.6598 211.42858,211.42857 z"
       inkscape:export-filename="C:\Users\hannes\Desktop\button_drive.png"
       inkscape:export-xdpi="90"
       inkscape:export-ydpi="90" />
  </g>
  <g
     inkscape:groupmode="layer"
     id="layer2"
     inkscape:label="schatten"
     transform="translate(725.71428,-169.50505)">
    <path
       transform="translate(-8.2519534e-7,1.9580079e-6)"
       sodipodi:type="arc"
       style="fill:url(#radialGradient3815);fill-opacity:1;fill-rule:nonzero;stroke:none"
       id="path2985-5"
       sodipodi:cx="-514.28571"
       sodipodi:cy="380.93362"
       sodipodi:rx="211.42857"
       sodipodi:ry="211.42857"
       d="m -302.85713,380.93362 c 0,116.76878 -94.6598,211.42858 -211.42858,211.42858 -116.76877,0 -211.42857,-94.6598 -211.42857,-211.42858 0,-116.76877 94.6598,-211.42857 211.42857,-211.42857 116.76878,0 211.42858,94.6598 211.42858,211.42857 z"
       inkscape:export-filename="C:\Users\hannes\Desktop\button_drive.png"
       inkscape:export-xdpi="90"
       inkscape:export-ydpi="90" />
  </g>
  <g
     inkscape:groupmode="layer"
     id="layer4"
     inkscape:label="Logo"
     transform="translate(725.71428,-169.50505)">
    <path
       style="fill:#000000;fill-opacity:1;fill-rule:nonzero;stroke:none"
       d=""
       id="path3118"
       inkscape:connector-curvature="0"
       transform="translate(-725.71428,169.50505)" />
    <g
       id="g3166"
       transform="matrix(0.4829416,0,0,0.4829416,-620.87782,-163.51649)"
       inkscape:export-filename="C:\Users\hannes\Desktop\button_drive.png"
       inkscape:export-xdpi="90"
       inkscape:export-ydpi="90">
      <path
         inkscape:connector-curvature="0"
         id="path3141"
         d="m 432.59452,1309.742 c -7.184,-0.833 -15.66893,-3.7436 -25.61304,-8.7861 -15.21243,-7.714 -24.91532,-15.8226 -58.31082,-48.7298 -36.80724,-36.269 -39.88365,-38.3678 -62.78629,-42.8341 -6.24445,-1.2177 -14.24829,-2.2809 -21.86128,-2.904 -7.33254,-0.6001 -64.58104,-0.8591 -77.25595,-0.3495 -29.69036,1.1936 -45.88935,4.7741 -57.63889,12.74 -7.77562,5.2717 -13.4563,10.4362 -35.105158,31.9153 -21.15134,20.9855 -26.77135,26.3942 -32.78466,31.5521 -16.6022,14.2404 -32.63108,23.0818 -47.81372,26.3736 -5.0454799,1.0939 -15.1362499,1.1874 -18.1516199,0.1681 -13.9849901,-4.7275 -24.4887201,-21.5162 -27.6703801,-44.2271 -1.43623,-10.2518 -1.55557,-13.3668 -1.06462,-27.7875 0.70397,-20.678 3.14754,-39.727 9.4605,-73.75 16.7967801,-90.5245 38.2228,-152.8594 64.57106,-187.8572 12.75337,-16.94003 25.87286,-26.60407 40.24955,-29.64849 3.82845,-0.81071 14.54088,-1.11637 19.453888,-0.55507 10.1322,1.15757 13.1178,2.13079 39.28571,12.80607 20.48506,8.35694 36.13698,11.74251 63.39286,13.71212 7.62664,0.55113 28.92388,0.53805 36.25,-0.0223 13.35379,-1.0213 25.30504,-2.59892 34.17442,-4.51116 10.24237,-2.20825 16.48198,-4.28073 34.38716,-11.42165 22.3601,-8.91763 26.16385,-9.86853 39.40196,-9.85014 16.92068,0.0235 23.58982,2.00718 34.83268,10.36064 3.97839,2.95598 12.25321,11.23251 16.26939,16.27279 12.94053,16.24034 25.35357,40.48889 36.29078,70.89289 12.01647,33.4043 23.41168,77.9031 29.815,116.4286 3.90115,23.4715 9.29,66.528 10.72775,85.7143 0.35508,4.7382 -1.19764,19.0209 -2.91192,26.7857 -3.84329,17.408 -11.88975,29.7002 -22.80865,34.8437 -5.05035,2.3791 -11.05182,3.333 -16.78571,2.6682 l 0,0 z M 121.74091,1152.7535 c 10.81048,-1.0779 19.38792,-3.3851 27.63932,-7.4346 14.95009,-7.3369 25.9201,-18.665 33.59909,-34.6959 5.24936,-10.9587 6.84567,-18.9684 6.4772,-32.5001 -0.52714,-19.3587 -5.62446,-33.0738 -17.32826,-46.6241 -8.69201,-10.0633 -19.42782,-17.2854 -31.88826,-21.4515 -26.67248,-8.9179 -56.062758,-1.9332 -75.870678,18.0309 -6.51763,6.569 -10.73767,12.6464 -14.29051,20.5804 -4.25862,9.5102 -6.13002,17.7678 -6.47563,28.5739 -0.40083,12.5331 1.65567,22.8625 6.64927,33.3981 3.92281,8.2765 8.3184,14.5219 14.84207,21.0881 11.95901,12.037 25.40084,18.5221 43.214278,20.8492 6.39023,0.8348 6.85682,0.8412 13.43211,0.1856 l 0,0 z m 203.9705,-3.9033 c 7.89097,-0.6888 14.79079,-5.2694 18.0725,-11.998 3.276,-6.7167 3.29547,-13.2428 0.0601,-20.1578 -2.77343,-5.9278 -8.42429,-10.6711 -14.34861,-12.0441 -1.04964,-0.2433 -3.98003,-0.4237 -6.54375,-0.4028 -7.11428,0.058 -11.41841,1.433 -15.53571,4.9632 -2.54565,2.1826 -4.46567,4.7284 -5.91353,7.8408 -1.59026,3.4186 -2.06917,6.1872 -1.86839,10.8011 0.18634,4.2821 1.09017,7.1349 3.4232,10.8046 2.36233,3.7157 8.34399,8.5805 11.91224,9.6879 1.32388,0.4108 6.50362,0.9617 7.62505,0.8109 0.39286,-0.053 1.79546,-0.1905 3.11689,-0.3058 l 0,0 z m -45.90362,-48.1917 c 4.17232,-1.1163 8.85738,-4.1684 11.7445,-7.6509 3.39444,-4.0945 5.13697,-9.2647 5.13697,-15.2418 0,-7.0919 -1.92238,-11.8343 -6.73899,-16.6248 -4.93885,-4.912 -9.56592,-6.8795 -16.10575,-6.8482 -6.21203,0.03 -11.36328,2.3567 -16.1672,7.3031 -2.72694,2.8078 -4.90892,6.8522 -5.62778,10.4313 -0.54787,2.7278 -0.54665,8.5701 0.002,10.9932 1.78391,7.874 6.59792,13.8677 13.33774,16.6064 4.61763,1.8763 9.85958,2.2514 14.41822,1.0317 l 1.5e-4,0 z m 98.55869,-0.6606 c 6.91415,-2.0318 12.32079,-7.2743 14.73311,-14.2859 1.58054,-4.5939 1.59411,-11.042 0.0332,-15.7471 -3.67967,-11.0915 -15.72503,-17.7528 -26.92278,-14.8889 -10.66947,2.7288 -17.43957,11.5132 -17.48686,22.6898 -0.0182,4.28 0.64022,7.0825 2.60079,11.0715 2.79993,5.6967 8.35146,10.3523 14.12778,11.8478 2.76118,0.7149 9.33347,0.3652 12.91482,-0.6872 l -7e-5,0 z m -49.63235,-48.8117 c 4.51632,-0.9321 7.15664,-2.3955 10.65185,-5.9039 9.84411,-9.8812 9.16386,-24.8981 -1.53221,-33.8251 -3.81054,-3.1803 -9.34829,-5.0233 -15.09229,-5.0228 -10.31429,7e-4 -18.75151,5.9733 -22.17549,15.6974 -1.06767,3.0321 -1.29411,8.5001 -0.5009,12.0954 1.01965,4.6217 2.72959,7.7306 6.10489,11.0995 3.01378,3.0081 4.94011,4.2153 9.08311,5.6921 3.0405,1.0837 8.68064,1.1539 13.46104,0.1674 l 0,0 z"
         style="fill:#000000;fill-opacity:1;fill-rule:nonzero;stroke:none" />
      <path
         inkscape:connector-curvature="0"
         id="path3143"
         d="m 110.70299,1128.2396 c -15.249058,-1.9128 -29.793418,-12.0467 -37.329328,-26.0095 -4.99795,-9.2604 -6.66986,-20.3375 -4.72823,-31.3265 4.72445,-26.7387 30.27906,-44.512 56.806228,-39.5088 10.7422,2.026 21.37502,8.0666 28.02367,15.9204 5.86279,6.9255 10.19589,16.1058 11.49411,24.3518 0.50812,3.2275 0.14129,15.5214 -0.56561,18.956 -0.66057,3.2094 -1.82074,6.1002 -4.34994,10.839 -10.02819,18.789 -29.37021,29.284 -49.3509,26.7776 z"
         style="fill:#000000;fill-opacity:1;fill-rule:nonzero;stroke:none" />
    </g>
  </g>
  <g
     inkscape:groupmode="layer"
     id="layer3"
     inkscape:label="glanz"
     transform="translate(725.71428,-169.50505)">
    <path
       transform="matrix(0.74324325,0,0,0.4864865,-132.04633,98.471706)"
       sodipodi:type="arc"
       style="fill:url(#linearGradient3011);fill-opacity:1;fill-rule:nonzero;stroke:none"
       id="path2985-6"
       sodipodi:cx="-514.28571"
       sodipodi:cy="380.93362"
       sodipodi:rx="211.42857"
       sodipodi:ry="211.42857"
       d="m -302.85713,380.93362 c 0,116.76878 -94.6598,211.42858 -211.42858,211.42858 -116.76877,0 -211.42857,-94.6598 -211.42857,-211.42858 0,-116.76877 94.6598,-211.42857 211.42857,-211.42857 116.76878,0 211.42858,94.6598 211.42858,211.42857 z"
       inkscape:export-filename="C:\Users\hannes\Desktop\button_drive.png"
       inkscape:export-xdpi="90"
       inkscape:export-ydpi="90" />
  </g>
</svg>
