<?xml version="1.0" encoding="UTF-8" standalone="no"?>
<!-- Created with Inkscape (http://www.inkscape.org/) -->

<svg
   xmlns:dc="http://purl.org/dc/elements/1.1/"
   xmlns:cc="http://creativecommons.org/ns#"
   xmlns:rdf="http://www.w3.org/1999/02/22-rdf-syntax-ns#"
   xmlns:svg="http://www.w3.org/2000/svg"
   xmlns="http://www.w3.org/2000/svg"
   xmlns:xlink="http://www.w3.org/1999/xlink"
   xmlns:sodipodi="http://sodipodi.sourceforge.net/DTD/sodipodi-0.dtd"
   xmlns:inkscape="http://www.inkscape.org/namespaces/inkscape"
   width="422.85715"
   height="422.85715"
   id="svg2"
   version="1.1"
   inkscape:version="0.48.2 r9819"
   sodipodi:docname="button_gps.svg"
   inkscape:export-filename="C:\Users\hannes\Desktop\button_gps.png"
   inkscape:export-xdpi="46.82"
   inkscape:export-ydpi="46.82">
  <defs
     id="defs4">
    <linearGradient
       id="linearGradient3853">
      <stop
         id="stop3855"
         offset="0"
         style="stop-color:#ffffff;stop-opacity:1;" />
      <stop
         id="stop3857"
         offset="1"
         style="stop-color:#5c636b;stop-opacity:0;" />
    </linearGradient>
    <linearGradient
       id="linearGradient3829">
      <stop
         id="stop3831"
         offset="0"
         style="stop-color:#5c636b;stop-opacity:0;" />
      <stop
         id="stop3833"
         offset="1"
         style="stop-color:#000000;stop-opacity:0.86033517;" />
    </linearGradient>
    <linearGradient
       inkscape:collect="always"
       id="linearGradient2987">
      <stop
         style="stop-color:#5c636b;stop-opacity:1;"
         offset="0"
         id="stop2989" />
      <stop
         style="stop-color:#5c636b;stop-opacity:0;"
         offset="1"
         id="stop2991" />
    </linearGradient>
    <linearGradient
       inkscape:collect="always"
       xlink:href="#linearGradient2987"
       id="linearGradient2993"
       x1="-728.57141"
       y1="172.36218"
       x2="-305.71426"
       y2="589.50507"
       gradientUnits="userSpaceOnUse" />
    <linearGradient
       inkscape:collect="always"
       xlink:href="#linearGradient2987-7"
       id="linearGradient2993-1"
       x1="-728.57141"
       y1="172.36218"
       x2="-305.71426"
       y2="589.50507"
       gradientUnits="userSpaceOnUse" />
    <linearGradient
       inkscape:collect="always"
       id="linearGradient2987-7">
      <stop
         style="stop-color:#5c636b;stop-opacity:1;"
         offset="0"
         id="stop2989-4" />
      <stop
         style="stop-color:#5c636b;stop-opacity:0;"
         offset="1"
         id="stop2991-0" />
    </linearGradient>
    <linearGradient
       inkscape:collect="always"
       xlink:href="#linearGradient2987-8"
       id="linearGradient2993-4"
       x1="-728.57141"
       y1="172.36218"
       x2="-305.71426"
       y2="589.50507"
       gradientUnits="userSpaceOnUse" />
    <linearGradient
       inkscape:collect="always"
       id="linearGradient2987-8">
      <stop
         style="stop-color:#5c636b;stop-opacity:1;"
         offset="0"
         id="stop2989-8" />
      <stop
         style="stop-color:#5c636b;stop-opacity:0;"
         offset="1"
         id="stop2991-2" />
    </linearGradient>
    <radialGradient
       inkscape:collect="always"
       xlink:href="#linearGradient3829"
       id="radialGradient3815"
       cx="-514.28571"
       cy="380.93362"
       fx="-514.28571"
       fy="380.93362"
       r="211.42857"
       gradientUnits="userSpaceOnUse" />
    <linearGradient
       inkscape:collect="always"
       xlink:href="#linearGradient2987-4"
       id="linearGradient2993-0"
       x1="-728.57141"
       y1="172.36218"
       x2="-305.71426"
       y2="589.50507"
       gradientUnits="userSpaceOnUse" />
    <linearGradient
       inkscape:collect="always"
       id="linearGradient2987-4">
      <stop
         style="stop-color:#5c636b;stop-opacity:1;"
         offset="0"
         id="stop2989-9" />
      <stop
         style="stop-color:#5c636b;stop-opacity:0;"
         offset="1"
         id="stop2991-4" />
    </linearGradient>
    <linearGradient
       y2="598.07648"
       x2="-508.57141"
       y1="169.50504"
       x1="-514.28571"
       gradientUnits="userSpaceOnUse"
       id="linearGradient3011"
       xlink:href="#linearGradient3853"
       inkscape:collect="always" />
  </defs>
  <sodipodi:namedview
     id="base"
     pagecolor="#ffffff"
     bordercolor="#666666"
     borderopacity="1.0"
     inkscape:pageopacity="0.0"
     inkscape:pageshadow="2"
     inkscape:zoom="0.35"
     inkscape:cx="528.57142"
     inkscape:cy="60.000017"
     inkscape:document-units="px"
     inkscape:current-layer="layer4"
     showgrid="false"
     fit-margin-top="0"
     fit-margin-left="0"
     fit-margin-right="0"
     fit-margin-bottom="0"
     inkscape:window-width="1352"
     inkscape:window-height="819"
     inkscape:window-x="1355"
     inkscape:window-y="75"
     inkscape:window-maximized="0" />
  <metadata
     id="metadata7">
    <rdf:RDF>
      <cc:Work
         rdf:about="">
        <dc:format>image/svg+xml</dc:format>
        <dc:type
           rdf:resource="http://purl.org/dc/dcmitype/StillImage" />
        <dc:title></dc:title>
      </cc:Work>
    </rdf:RDF>
  </metadata>
  <g
     inkscape:label="Ebene 1"
     inkscape:groupmode="layer"
     id="layer1"
     transform="translate(725.71428,-169.50505)">
    <path
       sodipodi:type="arc"
       style="fill:url(#linearGradient2993);fill-opacity:1;fill-rule:nonzero;stroke:none"
       id="path2985"
       sodipodi:cx="-514.28571"
       sodipodi:cy="380.93362"
       sodipodi:rx="211.42857"
       sodipodi:ry="211.42857"
       d="m -302.85713,380.93362 c 0,116.76878 -94.6598,211.42858 -211.42858,211.42858 -116.76877,0 -211.42857,-94.6598 -211.42857,-211.42858 0,-116.76877 94.6598,-211.42857 211.42857,-211.42857 116.76878,0 211.42858,94.6598 211.42858,211.42857 z"
       inkscape:export-filename="C:\Users\hannes\Desktop\button_bt.png"
       inkscape:export-xdpi="90"
       inkscape:export-ydpi="90" />
  </g>
  <g
     inkscape:groupmode="layer"
     id="layer2"
     inkscape:label="schatten"
     transform="translate(725.71428,-169.50505)">
    <path
       transform="translate(-8.2519534e-7,1.9580079e-6)"
       sodipodi:type="arc"
       style="fill:url(#radialGradient3815);fill-opacity:1;fill-rule:nonzero;stroke:none"
       id="path2985-5"
       sodipodi:cx="-514.28571"
       sodipodi:cy="380.93362"
       sodipodi:rx="211.42857"
       sodipodi:ry="211.42857"
       d="m -302.85713,380.93362 c 0,116.76878 -94.6598,211.42858 -211.42858,211.42858 -116.76877,0 -211.42857,-94.6598 -211.42857,-211.42858 0,-116.76877 94.6598,-211.42857 211.42857,-211.42857 116.76878,0 211.42858,94.6598 211.42858,211.42857 z"
       inkscape:export-filename="C:\Users\hannes\Desktop\button_bt.png"
       inkscape:export-xdpi="90"
       inkscape:export-ydpi="90" />
  </g>
  <g
     inkscape:groupmode="layer"
     id="layer4"
     inkscape:label="Logo"
     transform="translate(725.71428,-169.50505)">
    <path
       style="fill:#000000;fill-opacity:1;fill-rule:nonzero;stroke:none"
       d="m -518.31334,455.04106 c -4.02055,-7.84268 -7.3101,-14.58996 -7.3101,-14.99393 0,-0.40401 -6.19108,-13.14258 -13.75795,-28.30795 -19.0531,-38.18581 -24.33032,-49.43396 -25.66581,-54.70546 -1.61453,-6.37294 -1.56473,-17.90134 0.10717,-24.80646 1.42521,-5.8863 5.66743,-14.86293 9.28857,-19.65483 3.49086,-4.61949 10.6579,-11.39588 15.075,-14.25328 15.90393,-10.2882 35.05705,-11.72921 52.25463,-3.93145 11.12598,5.04476 21.1154,14.8605 27.04977,26.57948 7.65236,15.11162 7.71295,31.39004 0.17739,47.65721 -1.4579,3.14721 -10.99183,22.40789 -21.18652,42.80153 -10.19468,20.39359 -18.53848,37.25428 -18.54179,37.46808 -0.003,0.21385 -2.29521,4.89276 -5.09313,10.3976 l -5.08712,10.00883 -7.31011,-14.25937 z m 13.62036,-93.02607 c 11.19638,-2.99531 18.45701,-12.58774 18.4394,-24.36131 -0.0277,-18.49134 -19.27937,-30.17589 -36.07205,-21.89343 -1.36196,0.67175 -3.94765,2.59219 -5.74597,4.26766 -7.02879,6.5486 -9.44394,17.13273 -6.08307,26.65845 2.49358,7.06755 9.22098,13.20858 16.74162,15.28238 3.18265,0.87761 9.52626,0.90068 12.72007,0.046 l 0,0 z"
       id="path5302"
       inkscape:connector-curvature="0" />
  </g>
  <g
     inkscape:groupmode="layer"
     id="layer3"
     inkscape:label="glanz"
     transform="translate(725.71428,-169.50505)">
    <path
       transform="matrix(0.74324325,0,0,0.4864865,-132.04633,98.471706)"
       sodipodi:type="arc"
       style="fill:url(#linearGradient3011);fill-opacity:1;fill-rule:nonzero;stroke:none"
       id="path2985-6"
       sodipodi:cx="-514.28571"
       sodipodi:cy="380.93362"
       sodipodi:rx="211.42857"
       sodipodi:ry="211.42857"
       d="m -302.85713,380.93362 c 0,116.76878 -94.6598,211.42858 -211.42858,211.42858 -116.76877,0 -211.42857,-94.6598 -211.42857,-211.42858 0,-116.76877 94.6598,-211.42857 211.42857,-211.42857 116.76878,0 211.42858,94.6598 211.42858,211.42857 z"
       inkscape:export-filename="C:\Users\hannes\Desktop\button_bt.png"
       inkscape:export-xdpi="90"
       inkscape:export-ydpi="90" />
  </g>
</svg>
